<?xml version="1.0" encoding="UTF-8" standalone="no"?>
<svg
   xmlns:dc="http://purl.org/dc/elements/1.1/"
   xmlns:cc="http://creativecommons.org/ns#"
   xmlns:rdf="http://www.w3.org/1999/02/22-rdf-syntax-ns#"
   xmlns:svg="http://www.w3.org/2000/svg"
   xmlns="http://www.w3.org/2000/svg"
   viewBox="0 0 614.40002 460.79999"
   height="460.79999"
   width="614.40002"
   xml:space="preserve"
   id="svg2"
   version="1.1"><metadata
     id="metadata8"><rdf:RDF><cc:Work
         rdf:about=""><dc:format>image/svg+xml</dc:format><dc:type
           rdf:resource="http://purl.org/dc/dcmitype/StillImage" /></cc:Work></rdf:RDF></metadata><defs
     id="defs6"><clipPath
       id="clipPath20"
       clipPathUnits="userSpaceOnUse"><path
         id="path18"
         d="M 10.8,16.196428 H 362.16 V 331.34075 H 10.8 Z" /></clipPath><clipPath
       id="clipPath34"
       clipPathUnits="userSpaceOnUse"><path
         id="path32"
         d="M 10.8,16.196428 H 362.16 V 331.34075 H 10.8 Z" /></clipPath><clipPath
       id="clipPath44"
       clipPathUnits="userSpaceOnUse"><path
         id="path42"
         d="M 10.8,16.196428 H 362.16 V 331.34075 H 10.8 Z" /></clipPath><clipPath
       id="clipPath56"
       clipPathUnits="userSpaceOnUse"><path
         id="path54"
         d="M 10.8,16.196428 H 362.16 V 331.34075 H 10.8 Z" /></clipPath><clipPath
       id="clipPath68"
       clipPathUnits="userSpaceOnUse"><path
         id="path66"
         d="M 10.8,16.196428 H 362.16 V 331.34075 H 10.8 Z" /></clipPath><clipPath
       id="clipPath80"
       clipPathUnits="userSpaceOnUse"><path
         id="path78"
         d="M 10.8,16.196428 H 362.16 V 331.34075 H 10.8 Z" /></clipPath><clipPath
       id="clipPath92"
       clipPathUnits="userSpaceOnUse"><path
         id="path90"
         d="M 10.8,16.196428 H 362.16 V 331.34075 H 10.8 Z" /></clipPath><clipPath
       id="clipPath106"
       clipPathUnits="userSpaceOnUse"><path
         id="path104"
         d="M 10.8,16.196428 H 362.16 V 331.34075 H 10.8 Z" /></clipPath><clipPath
       id="clipPath118"
       clipPathUnits="userSpaceOnUse"><path
         id="path116"
         d="M 10.8,16.196428 H 362.16 V 331.34075 H 10.8 Z" /></clipPath><clipPath
       id="clipPath132"
       clipPathUnits="userSpaceOnUse"><path
         id="path130"
         d="M 10.8,16.196428 H 362.16 V 331.34075 H 10.8 Z" /></clipPath><clipPath
       id="clipPath144"
       clipPathUnits="userSpaceOnUse"><path
         id="path142"
         d="M 10.8,16.196428 H 362.16 V 331.34075 H 10.8 Z" /></clipPath><clipPath
       id="clipPath156"
       clipPathUnits="userSpaceOnUse"><path
         id="path154"
         d="M 10.8,16.196428 H 362.16 V 331.34075 H 10.8 Z" /></clipPath><clipPath
       id="clipPath168"
       clipPathUnits="userSpaceOnUse"><path
         id="path166"
         d="M 10.8,16.196428 H 362.16 V 331.34075 H 10.8 Z" /></clipPath><clipPath
       id="clipPath180"
       clipPathUnits="userSpaceOnUse"><path
         id="path178"
         d="M 10.8,16.196428 H 362.16 V 331.34075 H 10.8 Z" /></clipPath><clipPath
       id="clipPath192"
       clipPathUnits="userSpaceOnUse"><path
         id="path190"
         d="M 10.8,16.196428 H 362.16 V 331.34075 H 10.8 Z" /></clipPath><clipPath
       id="clipPath206"
       clipPathUnits="userSpaceOnUse"><path
         id="path204"
         d="M 10.8,16.196428 H 362.16 V 331.34075 H 10.8 Z" /></clipPath><clipPath
       id="clipPath216"
       clipPathUnits="userSpaceOnUse"><path
         id="path214"
         d="M 10.8,16.196428 H 362.16 V 331.34075 H 10.8 Z" /></clipPath><clipPath
       id="clipPath226"
       clipPathUnits="userSpaceOnUse"><path
         id="path224"
         d="M 10.8,16.196428 H 362.16 V 331.34075 H 10.8 Z" /></clipPath><clipPath
       id="clipPath236"
       clipPathUnits="userSpaceOnUse"><path
         id="path234"
         d="M 10.8,16.196428 H 362.16 V 331.34075 H 10.8 Z" /></clipPath><clipPath
       id="clipPath270"
       clipPathUnits="userSpaceOnUse"><path
         id="path268"
         d="m 384.12,16.196428 h 15.75722 V 331.34075 H 384.12 Z" /></clipPath><clipPath
       id="clipPath278"
       clipPathUnits="userSpaceOnUse"><path
         id="path276"
         d="m 384.12,16.196428 h 15.75722 V 331.34075 H 384.12 Z" /></clipPath></defs><g
     transform="matrix(1.3333333,0,0,-1.3333333,0,460.8)"
     id="g10"><path
       id="path12"
       style="fill:#ffffff;fill-opacity:1;fill-rule:nonzero;stroke:none"
       d="M 0,0 H 460.8 V 345.6 H 0 Z" /><g
       id="g14"><g
         clip-path="url(#clipPath20)"
         id="g16"><path
           id="path22"
           style="fill:#af7675;fill-opacity:1;fill-rule:nonzero;stroke:none"
           d="m 325.17474,160.50971 18.49263,-1.8361 18.49263,4.34493 v 2.45678 0.6693 l -18.49263,7.6942 -18.49263,4.76263 -8.08032,-13.12613 z" /><path
           id="path24"
           style="fill:#af7675;fill-opacity:1;fill-rule:nonzero;stroke:none"
           d="m 288.18947,178.59413 16.37906,3.46773 -16.37906,8.41254 -8.41619,-8.41254 z" /><path
           id="path26"
           style="fill:#af7675;fill-opacity:1;fill-rule:nonzero;stroke:none"
           d="m 251.20421,194.76031 10.40074,3.88809 -10.40074,10.37176 -8.08502,6.21479 -10.40761,11.41994 -18.49263,-0.33637 -7.63251,5.50297 -10.86012,7.89075 -18.49264,4.24191 -5.47582,4.45388 -13.01681,7.89447 -18.34401,8.69208 -0.14862,0.0649 -18.49263,10.37088 -11.32534,6.15081 -7.16729,3.51793 -18.492634,7.94658 -8.428813,5.12203 -10.063818,5.2157 -18.492632,8.96839 -2.978366,2.40246 -15.514265,7.57748 L 10.8,330.8645 v -16.11024 -16.58655 -6.62548 l 18.492632,-7.10882 4.660958,-2.85224 13.831673,-7.47282 18.492632,-5.29666 5.311138,-3.81706 13.181493,-7.26834 18.492634,-4.90579 5.62341,-4.41242 12.86922,-5.65093 18.49263,-5.35599 8.16806,-5.57962 10.32457,-4.13598 18.49263,-5.27105 11.57415,-7.17951 6.91849,-2.56659 18.49263,-4.12201 18.49263,-4.80017 4.71536,-5.09778 13.77727,-3.88809 z" /></g></g><g
       id="g28"><g
         clip-path="url(#clipPath34)"
         id="g30"><path
           id="path36"
           style="fill:#f1a27b;fill-opacity:1;fill-rule:nonzero;stroke:none"
           d="M 343.66737,147.94132 362.16,135.96698 v 12.92179 14.12977 l -18.49263,-4.34493 -18.49263,1.8361 -8.08032,4.96561 8.08032,13.12613 18.49263,-4.76263 18.49263,-7.6942 v 15.91724 7.3721 l -18.49263,2.04823 -9.11589,7.16621 -9.37674,3.93631 -18.49264,11.09888 -1.81183,1.55136 -16.6808,6.0325 -18.49263,7.7608 -4.00816,2.79324 -14.48447,4.69981 -18.49263,7.00529 -7.42372,4.88144 -11.06891,2.95358 -18.49263,3.96129 -13.48183,9.67168 -5.01081,1.33237 -18.49263,3.09393 -18.49263,11.62945 -0.98929,0.53079 -17.50334,4.62582 -18.13757,11.96072 -0.35506,0.12138 -18.492634,5.35852 -16.585951,11.10665 -1.90668,0.7075 -18.492632,6.87573 -14.101547,9.00331 H 29.292632 10.8 v -0.4763 l 18.492632,-8.53276 15.514265,-7.57748 2.978366,-2.40246 18.492632,-8.96839 10.063818,-5.2157 8.428813,-5.12203 18.492634,-7.94658 7.16729,-3.51793 11.32534,-6.15081 18.49263,-10.37088 0.14862,-0.0649 18.34401,-8.69208 13.01681,-7.89447 5.47582,-4.45388 18.49264,-4.24191 10.86012,-7.89075 7.63251,-5.50297 18.49263,0.33637 10.40761,-11.41994 8.08502,-6.21479 10.40074,-10.37176 -10.40074,-3.88809 -13.77727,3.88809 -4.71536,5.09778 -18.49263,4.80017 -18.49263,4.12201 -6.91849,2.56659 -11.57415,7.17951 -18.49263,5.27105 -10.32457,4.13598 -8.16806,5.57962 -18.49263,5.35599 -12.86922,5.65093 -5.62341,4.41242 -18.492634,4.90579 -13.181493,7.26834 -5.311138,3.81706 -18.492632,5.29666 -13.831673,7.47282 -4.660958,2.85224 L 10.8,291.54213 v -9.96106 -13.68088 l 4.233757,-2.90566 14.258875,-3.0901 18.492631,-5.79719 14.980452,-7.69926 3.51218,-0.78524 18.492631,-3.68489 18.492634,-7.45165 10.85038,-4.66476 7.64225,-1.86119 18.49263,-6.44075 18.49263,-7.81238 1.1359,-0.47222 17.35673,-5.54971 18.49264,-7.81585 10.26246,-3.22099 8.23017,-2.02954 18.49263,-7.03985 18.49263,-6.78627 1.71268,-0.73088 16.77995,-5.94213 18.49263,-7.86234 8.72683,-2.78207 9.7658,-3.41528 18.49264,-10.70684 14.31794,-2.46443 4.17469,-0.94745 z m -63.89409,34.12054 8.41619,8.41254 16.37906,-8.41254 -16.37906,-3.46773 z" /></g></g><g
       id="g38"><g
         clip-path="url(#clipPath44)"
         id="g40"><path
           id="path46"
           style="fill:#f9d982;fill-opacity:1;fill-rule:nonzero;stroke:none"
           d="M 343.66737,131.26369 362.16,121.55226 v 10.74997 3.66475 l -18.49263,11.97434 -4.17469,0.94745 -14.31794,2.46443 -18.49264,10.70684 -9.7658,3.41528 -8.72683,2.78207 -18.49263,7.86234 -16.77995,5.94213 -1.71268,0.73088 -18.49263,6.78627 -18.49263,7.03985 -8.23017,2.02954 -10.26246,3.22099 -18.49264,7.81585 -17.35673,5.54971 -1.1359,0.47222 -18.49263,7.81238 -18.49263,6.44075 -7.64225,1.86119 -10.85038,4.66476 -18.492634,7.45165 -18.492631,3.68489 -3.51218,0.78524 -14.980452,7.69926 -18.492631,5.79719 -14.258875,3.0901 L 10.8,267.90024 v -2.90566 -7.12475 l 18.492632,-7.9585 3.058903,-1.5033 15.433728,-3.99188 18.492632,-5.90548 15.260988,-6.68918 3.231643,-0.91125 18.492634,-5.29858 18.49263,-6.9444 7.21931,-3.43231 11.27332,-3.3061 18.49263,-5.92871 15.79274,-7.35174 2.69989,-0.85199 18.49264,-5.25993 18.49263,-7.63081 6.33113,-2.84381 12.1615,-3.82205 18.49263,-7.10655 12.73713,-5.65794 5.7555,-2.10754 18.49263,-8.79422 13.42158,-5.68479 5.07105,-1.81885 18.49264,-8.36006 16.48546,-6.40763 z" /><path
           id="path48"
           style="fill:#f9d982;fill-opacity:1;fill-rule:nonzero;stroke:none"
           d="M 343.66737,191.48219 362.16,189.43396 v 9.21444 16.58655 3.0195 l -18.49263,-0.60718 -18.49263,2.18794 -18.49264,7.08177 -12.27661,4.90451 -6.21602,1.46628 -18.49263,5.76812 -18.49263,7.00747 -4.64678,2.34467 -13.84585,4.20162 -18.49263,6.14791 -12.62063,6.23702 -5.872,1.72179 -18.49264,5.51019 -18.42195,9.35456 -0.0707,0.0239 -18.49263,5.51621 -18.49263,9.95946 -1.64831,1.08696 -16.84432,5.75816 -18.425623,10.82839 -0.06701,0.0276 -18.492631,6.87774 -16.091649,9.68124 H 47.785244 33.683697 l 14.101547,-9.00331 18.492632,-6.87573 1.90668,-0.7075 16.585951,-11.10665 18.492633,-5.35852 0.35506,-0.12138 18.13757,-11.96072 17.50334,-4.62582 0.98929,-0.53079 18.49263,-11.62945 18.49263,-3.09393 5.01081,-1.33237 13.48183,-9.67168 18.49263,-3.96129 11.06891,-2.95358 7.42372,-4.88144 18.49263,-7.00529 14.48447,-4.69981 4.00816,-2.79324 18.49263,-7.7608 16.6808,-6.0325 1.81183,-1.55136 18.49264,-11.09888 9.37674,-3.93631 9.11589,-7.16621 z" /></g></g><g
       id="g50"><g
         clip-path="url(#clipPath56)"
         id="g52"><path
           id="path58"
           style="fill:#e9fe98;fill-opacity:1;fill-rule:nonzero;stroke:none"
           d="m 362.16,90.290801 v 8.838343 16.586546 5.83657 l -18.49263,9.71143 -2.00717,1.03854 -16.48546,6.40763 -18.49264,8.36006 -5.07105,1.81885 -13.42158,5.68479 -18.49263,8.79422 -5.7555,2.10754 -12.73713,5.65794 -18.49263,7.10655 -12.1615,3.82205 -6.33113,2.84381 -18.49263,7.63081 -18.49264,5.25993 -2.69989,0.85199 -15.79274,7.35174 -18.49263,5.92871 -11.27332,3.3061 -7.21931,3.43231 -18.49263,6.9444 -18.492634,5.29858 -3.231643,0.91125 -15.260988,6.68918 -18.492632,5.90548 -15.433728,3.99188 -3.058903,1.5033 L 10.8,257.86983 v -9.4618 -0.62938 l 18.492632,-5.6093 18.492631,-6.46693 9.01492,-3.88093 9.477712,-2.99836 18.492631,-6.00543 17.159384,-7.58275 1.33325,-0.46503 18.49263,-5.38584 18.49263,-7.07187 8.58369,-3.66381 9.90894,-3.27958 18.49263,-6.4687 17.8697,-6.83826 0.62294,-0.22696 18.49263,-7.56807 18.49263,-7.34078 3.08035,-1.45073 15.41228,-6.67586 18.49263,-8.44418 2.57739,-1.46651 15.91524,-8.07923 16.93998,-8.50731 1.55265,-1.06887 18.49264,-11.6362 6.82081,-3.88147 11.67182,-10.07761 7.18363,-6.508936 z" /><path
           id="path60"
           style="fill:#e9fe98;fill-opacity:1;fill-rule:nonzero;stroke:none"
           d="m 306.6821,226.91698 18.49264,-7.08177 18.49263,-2.18794 18.49263,0.60718 v 13.56704 0.0441 l -18.49263,1.36838 -18.49263,2.35074 -18.49264,2.85274 -18.49263,4.869 -13.44412,5.10156 -5.04851,1.28496 -18.49263,4.49914 -18.49263,6.33981 -10.93708,4.46264 -7.55555,2.16026 -18.49263,5.61958 -18.49264,7.59663 -2.38298,1.21007 -16.10965,5.44958 -18.49263,7.92718 -5.66443,3.20978 -12.8282,4.84489 -18.49263,8.69493 -5.184329,3.04673 -13.308305,5.47346 -18.492631,9.98799 -1.870073,1.12509 H 50.186246 l 16.091649,-9.68124 18.492631,-6.87774 0.06701,-0.0276 18.425624,-10.82839 16.84432,-5.75816 1.64831,-1.08696 18.49263,-9.95946 18.49263,-5.51621 0.0707,-0.0239 18.42195,-9.35456 18.49264,-5.51019 5.872,-1.72179 12.62063,-6.23702 18.49263,-6.14791 13.84585,-4.20162 4.64678,-2.34467 18.49263,-7.00747 18.49263,-5.76812 6.21602,-1.46628 12.27661,-4.90451 z" /></g></g><g
       id="g62"><g
         clip-path="url(#clipPath68)"
         id="g64"><path
           id="path70"
           style="fill:#c1fdc3;fill-opacity:1;fill-rule:nonzero;stroke:none"
           d="M 343.66737,81.801484 362.16,66.712498 v 15.830103 7.7482 l -11.309,8.838343 -7.18363,6.508936 -11.67182,10.07761 -6.82081,3.88147 -18.49264,11.6362 -1.55265,1.06887 -16.93998,8.50731 -15.91524,8.07923 -2.57739,1.46651 -18.49263,8.44418 -15.41228,6.67586 -3.08035,1.45073 -18.49263,7.34078 -18.49263,7.56807 -0.62294,0.22696 -17.8697,6.83826 -18.49263,6.4687 -9.90894,3.27958 -8.58369,3.66381 -18.49263,7.07187 -18.49263,5.38584 -1.33325,0.46503 -17.159384,7.58275 -18.492631,6.00543 -9.477712,2.99836 -9.01492,3.88093 -18.492631,6.46693 L 10.8,247.77865 v -7.78425 l 18.492632,-7.29772 2.21955,-0.87519 16.273081,-5.3031 18.492632,-6.53527 11.571489,-4.74817 6.921142,-2.62361 18.492634,-6.65946 18.49263,-6.92532 0.88776,-0.37816 17.60487,-6.57698 18.49263,-6.99695 7.35449,-3.01261 11.13814,-4.63056 18.49264,-7.2895 10.16828,-4.66648 8.32435,-3.85695 18.49263,-7.72651 10.32291,-5.00309 8.16972,-4.37614 18.49263,-9.78996 4.63459,-2.42044 13.85804,-8.5408 11.11044,-8.04574 7.38219,-5.25542 15.13711,-11.331126 3.35553,-2.542849 17.58463,-14.043694 z" /><path
           id="path72"
           style="fill:#c1fdc3;fill-opacity:1;fill-rule:nonzero;stroke:none"
           d="m 288.18947,243.30647 18.49263,-4.869 18.49264,-2.85274 18.49263,-2.35074 18.49263,-1.36838 v 16.54242 0.94493 l -18.40684,-0.94493 -0.0858,-0.003 -0.0842,0.003 -18.40839,0.72047 -18.49264,2.17517 -18.49263,3.77264 -18.49263,3.89365 -18.49263,4.93622 -2.94312,1.0884 -15.54951,4.76827 -18.49263,5.05573 -18.49263,6.31907 -1.03722,0.44347 -17.45542,6.15285 -18.49263,6.78696 -7.5648,3.64673 -10.92783,4.50999 -18.49263,7.54544 -8.64133,4.53112 -9.8513,4.43915 -18.492634,8.55247 -6.394123,3.59492 H 66.277925 64.407852 l 1.870073,-1.12509 18.492631,-9.98799 13.308305,-5.47346 5.184329,-3.04673 18.49263,-8.69493 12.8282,-4.84489 5.66443,-3.20978 18.49263,-7.92718 16.10965,-5.44958 2.38298,-1.21007 18.49264,-7.59663 18.49263,-5.61958 7.55555,-2.16026 10.93708,-4.46264 18.49263,-6.33981 18.49263,-4.49914 5.04851,-1.28496 13.44412,-5.10156 z" /></g></g><g
       id="g74"><g
         clip-path="url(#clipPath80)"
         id="g76"><path
           id="path82"
           style="fill:#a0fcee;fill-opacity:1;fill-rule:nonzero;stroke:none"
           d="m 362.16,37.434021 v 11.935493 16.586544 0.75644 l -18.49263,15.088986 -0.908,0.741117 -17.58463,14.043694 -3.35553,2.542849 -15.13711,11.331126 -7.38219,5.25542 -11.11044,8.04574 -13.85804,8.5408 -4.63459,2.42044 -18.49263,9.78996 -8.16972,4.37614 -10.32291,5.00309 -18.49263,7.72651 -8.32435,3.85695 -10.16828,4.66648 -18.49264,7.2895 -11.13814,4.63056 -7.35449,3.01261 -18.49263,6.99695 -17.60487,6.57698 -0.88776,0.37816 -18.49263,6.92532 -18.492634,6.65946 -6.921142,2.62361 -11.571489,4.74817 -18.492632,6.53527 -16.273081,5.3031 -2.21955,0.87519 L 10.8,239.9944 v -8.17291 -2.69896 l 18.492632,-6.79808 18.492631,-6.61389 1.242565,-0.47561 17.250067,-6.8151 18.492631,-7.08253 6.907166,-2.68892 11.585468,-4.74773 18.49263,-6.74496 12.59965,-5.09385 5.89298,-2.70966 18.49263,-7.77219 13.47119,-6.10469 5.02144,-2.48071 18.49264,-8.24598 11.82611,-5.85986 6.66652,-3.62401 18.49263,-9.80303 5.75194,-3.1595 12.74069,-7.06204 14.57231,-9.5245 3.92032,-2.67402 18.49263,-12.555 1.86178,-1.357526 16.63085,-12.043491 5.87587,-4.543052 12.61677,-10.087372 7.88473,-6.499171 10.6079,-9.608405 7.54436,-6.978139 z" /><path
           id="path84"
           style="fill:#a0fcee;fill-opacity:1;fill-rule:nonzero;stroke:none"
           d="m 343.66737,248.40463 0.0858,0.003 18.40684,0.94493 v 15.64162 13.54671 l -18.49263,-6.03182 -18.49263,-2.10125 -18.49264,0.0174 -18.49263,0.98181 -18.49263,2.65558 -18.49263,3.28271 -18.49263,3.53722 -2.74104,0.6982 -15.75159,4.79164 -18.49263,5.49102 -18.49264,5.38871 -2.39148,0.91517 -16.10115,6.6847 -18.49263,6.67788 -7.409,3.22397 -11.08363,5.17874 -18.49263,7.81484 -7.234349,3.59296 H 84.770536 78.376413 l 6.394123,-3.59492 18.492634,-8.55247 9.8513,-4.43915 8.64133,-4.53112 18.49263,-7.54544 10.92783,-4.50999 7.5648,-3.64673 18.49263,-6.78696 17.45542,-6.15285 1.03722,-0.44347 18.49263,-6.31907 18.49263,-5.05573 15.54951,-4.76827 2.94312,-1.0884 18.49263,-4.93622 18.49263,-3.89365 18.49263,-3.77264 18.49264,-2.17517 18.40839,-0.72047 0.0842,-0.003 z" /></g></g><g
       id="g86"><g
         clip-path="url(#clipPath92)"
         id="g88"><path
           id="path94"
           style="fill:#85befa;fill-opacity:1;fill-rule:nonzero;stroke:none"
           d="m 10.8,20.805801 v -4.609373 h 5.910021 z" /><path
           id="path96"
           style="fill:#85befa;fill-opacity:1;fill-rule:nonzero;stroke:none"
           d="m 343.66737,16.681688 0.37617,-0.48526 H 362.16 v 16.586543 4.65105 l -10.94827,11.935493 -7.54436,6.978139 -10.6079,9.608405 -7.88473,6.499171 -12.61677,10.087372 -5.87587,4.543052 -16.63085,12.043491 -1.86178,1.357526 -18.49263,12.555 -3.92032,2.67402 -14.57231,9.5245 -12.74069,7.06204 -5.75194,3.1595 -18.49263,9.80303 -6.66652,3.62401 -11.82611,5.85986 -18.49264,8.24598 -5.02144,2.48071 -13.47119,6.10469 -18.49263,7.77219 -5.89298,2.70966 -12.59965,5.09385 -18.49263,6.74496 -11.585468,4.74773 -6.907166,2.68892 -18.492631,7.08253 -17.250067,6.8151 -1.242565,0.47561 -18.492631,6.61389 L 10.8,229.12253 v -13.88758 -2.58523 l 18.492632,-7.18033 18.492631,-6.74491 0.222985,-0.0761 18.269647,-7.8263 18.492631,-7.03461 4.756382,-1.72563 13.736252,-6.37383 18.49263,-7.59761 6.26189,-2.6151 12.23074,-6.06755 18.49263,-8.66199 4.10083,-1.85701 14.3918,-7.64036 18.10185,-8.94618 0.39079,-0.23037 18.49263,-11.13012 9.20413,-5.22605 9.2885,-6.11258 17.0648,-10.473966 1.42783,-1.013706 18.49263,-13.23376 3.33487,-2.339077 15.15776,-11.935185 5.89043,-4.651358 12.6022,-11.0229 6.36432,-5.563644 12.12832,-12.094197 4.3085,-4.492346 14.18413,-16.101283 z" /><path
           id="path98"
           style="fill:#85befa;fill-opacity:1;fill-rule:nonzero;stroke:none"
           d="m 232.71158,280.88292 18.49263,-3.53722 18.49263,-3.28271 18.49263,-2.65558 18.49263,-0.98181 18.49264,-0.0174 18.49263,2.10125 18.49263,6.03182 v 3.03983 16.58654 16.58655 16.58654 h -16.30695 l -2.18568,-3.21041 -16.65821,-13.37613 -1.83442,-0.92512 -18.49264,-5.1242 -18.49263,-2.60036 -18.49263,-0.75356 -18.49263,0.383 -18.49263,1.61384 -18.49263,2.02824 -18.49263,2.60927 -15.48716,2.76889 -3.00548,0.74638 -18.49263,6.66093 -18.49263,5.79906 -10.91958,3.38017 h -7.57305 -18.49263 -7.234349 l 7.234349,-3.59296 18.49263,-7.81484 11.08363,-5.17874 7.409,-3.22397 18.49263,-6.67788 16.10115,-6.6847 2.39148,-0.91517 18.49264,-5.38871 18.49263,-5.49102 15.75159,-4.79164 2.74104,-0.6982 z" /></g></g><g
       id="g100"><g
         clip-path="url(#clipPath106)"
         id="g102"><path
           id="path108"
           style="fill:#7580f7;fill-opacity:1;fill-rule:nonzero;stroke:none"
           d="m 29.292632,16.196428 h 18.492631 18.492632 18.492631 18.492634 18.49263 18.49263 18.49263 18.49263 18.49264 18.49263 18.49263 18.49263 18.49263 18.49263 18.49263 18.49264 18.49263 0.37617 l -0.37617,0.48526 -14.18413,16.101283 -4.3085,4.492346 -12.12832,12.094197 -6.36432,5.563644 -12.6022,11.0229 -5.89043,4.651358 -15.15776,11.935185 -3.33487,2.339077 -18.49263,13.23376 -1.42783,1.013706 -17.0648,10.473966 -9.2885,6.11258 -9.20413,5.22605 -18.49263,11.13012 -0.39079,0.23037 -18.10185,8.94618 -14.3918,7.64036 -4.10083,1.85701 -18.49263,8.66199 -12.23074,6.06755 -6.26189,2.6151 -18.49263,7.59761 -13.736252,6.37383 -4.756382,1.72563 -18.492631,7.03461 -18.269647,7.8263 -0.222985,0.0761 -18.492631,6.74491 L 10.8,212.64974 V 198.64842 182.06188 165.47534 148.88879 132.30225 115.71571 99.129164 82.542621 65.956078 49.369534 32.782991 20.805821 l 5.910021,-4.609373 h 12.582611 z m 73.970528,49.75963 v 0 0 z" /><path
           id="path110"
           style="fill:#7580f7;fill-opacity:1;fill-rule:nonzero;stroke:none"
           d="m 195.72632,311.98532 18.49263,-2.60927 18.49263,-2.02824 18.49263,-1.61384 18.49263,-0.383 18.49263,0.75356 18.49263,2.60036 18.49264,5.1242 1.83442,0.92512 16.65821,13.37613 2.18568,3.21041 h -2.18568 -18.49263 -18.49264 -18.49263 -18.49263 -18.49263 -18.49263 -18.49263 -18.49263 -18.49264 -18.49263 -18.49263 -10.91958 l 10.91958,-3.38017 18.49263,-5.79906 18.49263,-6.66093 3.00548,-0.74638 z" /></g></g><g
       id="g112"><g
         clip-path="url(#clipPath118)"
         id="g114"><path
           id="path120"
           style="fill:none;stroke:#000000;stroke-width:1.5;stroke-linecap:butt;stroke-linejoin:round;stroke-miterlimit:10;stroke-dasharray:none;stroke-opacity:1"
           d="m 362.16,163.01854 -18.49263,-4.34493 -18.49263,1.8361 -8.08032,4.96561 8.08032,13.12613 18.49263,-4.76263 18.49263,-7.6942" /><path
           id="path122"
           style="fill:none;stroke:#000000;stroke-width:1.5;stroke-linecap:butt;stroke-linejoin:round;stroke-miterlimit:10;stroke-dasharray:none;stroke-opacity:1"
           d="m 10.8,330.86445 18.492632,-8.53276 15.514265,-7.57748 2.978366,-2.40246 18.492632,-8.96839 10.063818,-5.2157 8.428813,-5.12203 18.492634,-7.94658 7.16729,-3.51793 11.32534,-6.15081 18.49263,-10.37088 0.14862,-0.0649 18.34401,-8.69208 13.01681,-7.89447 5.47582,-4.45388 18.49264,-4.24191 10.86012,-7.89075 7.63251,-5.50297 18.49263,0.33637 10.40761,-11.41994 8.08502,-6.21479 10.40074,-10.37176 -10.40074,-3.88809 -13.77727,3.88809 -4.71536,5.09778 -18.49263,4.80017 -18.49263,4.12201 -6.91849,2.56659 -11.57415,7.17951 -18.49263,5.27105 -10.32457,4.13598 -8.16806,5.57962 -18.49263,5.35599 -12.86922,5.65093 -5.62341,4.41242 -18.492634,4.90579 -13.181493,7.26834 -5.311138,3.81706 -18.492632,5.29666 -13.831673,7.47282 -4.660958,2.85224 L 10.8,291.54218" /><path
           id="path124"
           style="fill:none;stroke:#000000;stroke-width:1.5;stroke-linecap:butt;stroke-linejoin:round;stroke-miterlimit:10;stroke-dasharray:none;stroke-opacity:1"
           d="m 288.18947,178.59413 -8.41619,3.46773 8.41619,8.41254 16.37906,-8.41254 -16.37906,-3.46773" /></g></g><g
       id="g126"><g
         clip-path="url(#clipPath132)"
         id="g128"><path
           id="path134"
           style="fill:none;stroke:#000000;stroke-width:1.5;stroke-linecap:butt;stroke-linejoin:round;stroke-miterlimit:10;stroke-dasharray:none;stroke-opacity:1"
           d="m 362.16,135.96698 -18.49263,11.97434 -4.17469,0.94745 -14.31794,2.46443 -18.49264,10.70684 -9.7658,3.41528 -8.72683,2.78207 -18.49263,7.86234 -16.77995,5.94213 -1.71268,0.73088 -18.49263,6.78627 -18.49263,7.03985 -8.23017,2.02954 -10.26246,3.22099 -18.49264,7.81585 -17.35673,5.54971 -1.1359,0.47222 -18.49263,7.81238 -18.49263,6.44075 -7.64225,1.86119 -10.85038,4.66476 -18.492634,7.45165 -18.492631,3.68489 -3.51218,0.78524 -14.980452,7.69926 -18.492631,5.79719 -14.258875,3.0901 L 10.8,267.90024" /><path
           id="path136"
           style="fill:none;stroke:#000000;stroke-width:1.5;stroke-linecap:butt;stroke-linejoin:round;stroke-miterlimit:10;stroke-dasharray:none;stroke-opacity:1"
           d="m 33.683716,331.34075 14.101547,-9.00331 18.492632,-6.87573 1.90668,-0.7075 16.585951,-11.10665 18.492634,-5.35852 0.35506,-0.12138 18.13757,-11.96072 17.50334,-4.62582 0.98929,-0.53079 18.49263,-11.62945 18.49263,-3.09393 5.01081,-1.33237 13.48183,-9.67168 18.49263,-3.96129 11.06891,-2.95358 7.42372,-4.88144 18.49263,-7.00529 14.48447,-4.69981 4.00816,-2.79324 18.49263,-7.7608 16.6808,-6.0325 1.81183,-1.55136 18.49264,-11.09888 9.37674,-3.93631 9.11589,-7.16621 18.49263,-2.04823" /></g></g><g
       id="g138"><g
         clip-path="url(#clipPath144)"
         id="g140"><path
           id="path146"
           style="fill:none;stroke:#000000;stroke-width:1.5;stroke-linecap:butt;stroke-linejoin:round;stroke-miterlimit:10;stroke-dasharray:none;stroke-opacity:1"
           d="m 362.16,121.55226 -18.49263,9.71143 -2.00717,1.03854 -16.48546,6.40763 -18.49264,8.36006 -5.07105,1.81885 -13.42158,5.68479 -18.49263,8.79422 -5.7555,2.10754 -12.73713,5.65794 -18.49263,7.10655 -12.1615,3.82205 -6.33113,2.84381 -18.49263,7.63081 -18.49264,5.25993 -2.69989,0.85199 -15.79274,7.35174 -18.49263,5.92871 -11.27332,3.3061 -7.21931,3.43231 -18.49263,6.9444 -18.492634,5.29858 -3.231643,0.91125 -15.260988,6.68918 -18.492632,5.90548 -15.433728,3.99188 -3.058903,1.5033 L 10.8,257.86983" /><path
           id="path148"
           style="fill:none;stroke:#000000;stroke-width:1.5;stroke-linecap:butt;stroke-linejoin:round;stroke-miterlimit:10;stroke-dasharray:none;stroke-opacity:1"
           d="m 50.186246,331.34075 16.091649,-9.68124 18.492631,-6.87774 0.06701,-0.0276 18.425624,-10.82839 16.84432,-5.75816 1.64831,-1.08696 18.49263,-9.95946 18.49263,-5.51621 0.0707,-0.0239 18.42195,-9.35456 18.49264,-5.51019 5.872,-1.72179 12.62063,-6.23702 18.49263,-6.14791 13.84585,-4.20162 4.64678,-2.34467 18.49263,-7.00747 18.49263,-5.76812 6.21602,-1.46628 12.27661,-4.90451 18.49264,-7.08177 18.49263,-2.18794 18.49263,0.60718" /></g></g><g
       id="g150"><g
         clip-path="url(#clipPath156)"
         id="g152"><path
           id="path158"
           style="fill:none;stroke:#000000;stroke-width:1.5;stroke-linecap:butt;stroke-linejoin:round;stroke-miterlimit:10;stroke-dasharray:none;stroke-opacity:1"
           d="m 362.16,90.290801 -11.309,8.838343 -7.18363,6.508936 -11.67182,10.07761 -6.82081,3.88147 -18.49264,11.6362 -1.55265,1.06887 -16.93998,8.50731 -15.91524,8.07923 -2.57739,1.46651 -18.49263,8.44418 -15.41228,6.67586 -3.08035,1.45073 -18.49263,7.34078 -18.49263,7.56807 -0.62294,0.22696 -17.8697,6.83826 -18.49263,6.4687 -9.90894,3.27958 -8.58369,3.66381 -18.49263,7.07187 -18.49263,5.38584 -1.33325,0.46503 -17.159384,7.58275 -18.492631,6.00543 -9.477712,2.99836 -9.01492,3.88093 -18.492631,6.46693 L 10.8,247.77865" /><path
           id="path160"
           style="fill:none;stroke:#000000;stroke-width:1.5;stroke-linecap:butt;stroke-linejoin:round;stroke-miterlimit:10;stroke-dasharray:none;stroke-opacity:1"
           d="m 64.407822,331.34075 1.870073,-1.12509 18.492631,-9.98799 13.308305,-5.47346 5.184329,-3.04673 18.49263,-8.69493 12.8282,-4.84489 5.66443,-3.20978 18.49263,-7.92718 16.10965,-5.44958 2.38298,-1.21007 18.49264,-7.59663 18.49263,-5.61958 7.55555,-2.16026 10.93708,-4.46264 18.49263,-6.33981 18.49263,-4.49914 5.04851,-1.28496 13.44412,-5.10156 18.49263,-4.869 18.49264,-2.85274 18.49263,-2.35074 18.49263,-1.36838" /></g></g><g
       id="g162"><g
         clip-path="url(#clipPath168)"
         id="g164"><path
           id="path170"
           style="fill:none;stroke:#000000;stroke-width:1.5;stroke-linecap:butt;stroke-linejoin:round;stroke-miterlimit:10;stroke-dasharray:none;stroke-opacity:1"
           d="m 362.16,66.712498 -18.49263,15.088986 -0.908,0.741117 -17.58463,14.043694 -3.35553,2.542849 -15.13711,11.331126 -7.38219,5.25542 -11.11044,8.04574 -13.85804,8.5408 -4.63459,2.42044 -18.49263,9.78996 -8.16972,4.37614 -10.32291,5.00309 -18.49263,7.72651 -8.32435,3.85695 -10.16828,4.66648 -18.49264,7.2895 -11.13814,4.63056 -7.35449,3.01261 -18.49263,6.99695 -17.60487,6.57698 -0.88776,0.37816 -18.49263,6.92532 -18.492634,6.65946 -6.921142,2.62361 -11.571489,4.74817 -18.492632,6.53527 -16.273081,5.3031 -2.21955,0.87519 L 10.8,239.9944" /><path
           id="path172"
           style="fill:none;stroke:#000000;stroke-width:1.5;stroke-linecap:butt;stroke-linejoin:round;stroke-miterlimit:10;stroke-dasharray:none;stroke-opacity:1"
           d="m 78.376403,331.34075 6.394123,-3.59492 18.492634,-8.55247 9.8513,-4.43915 8.64133,-4.53112 18.49263,-7.54544 10.92783,-4.50999 7.5648,-3.64673 18.49263,-6.78696 17.45542,-6.15285 1.03722,-0.44347 18.49263,-6.31907 18.49263,-5.05573 15.54951,-4.76827 2.94312,-1.0884 18.49263,-4.93622 18.49263,-3.89365 18.49263,-3.77264 18.49264,-2.17517 18.40839,-0.72047 0.0842,-0.003 0.0858,0.003 18.40684,0.94493" /></g></g><g
       id="g174"><g
         clip-path="url(#clipPath180)"
         id="g176"><path
           id="path182"
           style="fill:none;stroke:#000000;stroke-width:1.5;stroke-linecap:butt;stroke-linejoin:round;stroke-miterlimit:10;stroke-dasharray:none;stroke-opacity:1"
           d="m 362.16,37.434021 -10.94827,11.935493 -7.54436,6.978139 -10.6079,9.608405 -7.88473,6.499171 -12.61677,10.087372 -5.87587,4.543052 -16.63085,12.043491 -1.86178,1.357526 -18.49263,12.555 -3.92032,2.67402 -14.57231,9.5245 -12.74069,7.06204 -5.75194,3.1595 -18.49263,9.80303 -6.66652,3.62401 -11.82611,5.85986 -18.49264,8.24598 -5.02144,2.48071 -13.47119,6.10469 -18.49263,7.77219 -5.89298,2.70966 -12.59965,5.09385 -18.49263,6.74496 -11.585468,4.74773 -6.907166,2.68892 -18.492631,7.08253 -17.250067,6.8151 -1.242565,0.47561 -18.492631,6.61389 L 10.8,229.12253" /><path
           id="path184"
           style="fill:none;stroke:#000000;stroke-width:1.5;stroke-linecap:butt;stroke-linejoin:round;stroke-miterlimit:10;stroke-dasharray:none;stroke-opacity:1"
           d="m 96.028811,331.34075 7.234349,-3.59296 18.49263,-7.81484 11.08363,-5.17874 7.409,-3.22397 18.49263,-6.67788 16.10115,-6.6847 2.39148,-0.91517 18.49264,-5.38871 18.49263,-5.49102 15.75159,-4.79164 2.74104,-0.6982 18.49263,-3.53722 18.49263,-3.28271 18.49263,-2.65558 18.49263,-0.98181 18.49264,-0.0174 18.49263,2.10125 18.49263,6.03182" /></g></g><g
       id="g186"><g
         clip-path="url(#clipPath192)"
         id="g188"><path
           id="path194"
           style="fill:none;stroke:#000000;stroke-width:1.5;stroke-linecap:butt;stroke-linejoin:round;stroke-miterlimit:10;stroke-dasharray:none;stroke-opacity:1"
           d="m 10.8,20.805801 5.910021,-4.609373" /><path
           id="path196"
           style="fill:none;stroke:#000000;stroke-width:1.5;stroke-linecap:butt;stroke-linejoin:round;stroke-miterlimit:10;stroke-dasharray:none;stroke-opacity:1"
           d="m 344.04354,16.196428 -0.37617,0.48526 -14.18413,16.101283 -4.3085,4.492346 -12.12832,12.094197 -6.36432,5.563644 -12.6022,11.0229 -5.89043,4.651358 -15.15776,11.935185 -3.33487,2.339077 -18.49263,13.23376 -1.42783,1.013706 -17.0648,10.473966 -9.2885,6.11258 -9.20413,5.22605 -18.49263,11.13012 -0.39079,0.23037 -18.10185,8.94618 -14.3918,7.64036 -4.10083,1.85701 -18.49263,8.66199 -12.23074,6.06755 -6.26189,2.6151 -18.49263,7.59761 -13.736252,6.37383 -4.756382,1.72563 -18.492631,7.03461 -18.269647,7.8263 -0.222985,0.0761 -18.492631,6.74491 L 10.8,212.64972" /><path
           id="path198"
           style="fill:none;stroke:#000000;stroke-width:1.5;stroke-linecap:butt;stroke-linejoin:round;stroke-miterlimit:10;stroke-dasharray:none;stroke-opacity:1"
           d="m 129.32884,331.34075 10.91958,-3.38017 18.49263,-5.79906 18.49263,-6.66093 3.00548,-0.74638 15.48716,-2.76889 18.49263,-2.60927 18.49263,-2.02824 18.49263,-1.61384 18.49263,-0.383 18.49263,0.75356 18.49263,2.60036 18.49264,5.1242 1.83442,0.92512 16.65821,13.37613 2.18568,3.21041" /></g></g><g
       id="g200"><g
         clip-path="url(#clipPath206)"
         id="g202"><path
           id="path208"
           style="fill:none;stroke:#000000;stroke-width:1.5;stroke-linecap:butt;stroke-linejoin:round;stroke-miterlimit:10;stroke-dasharray:none;stroke-opacity:1"
           d="m 103.26316,65.956058 v 0 0 0 z" /></g></g><g
       id="g210"><g
         clip-path="url(#clipPath216)"
         id="g212"><path
           id="path218"
           style="fill:#000000;fill-opacity:1;fill-rule:nonzero;stroke:#000000;stroke-width:1;stroke-linecap:butt;stroke-linejoin:bevel;stroke-miterlimit:10;stroke-dasharray:none;stroke-opacity:1"
           d="m 69.36,73.720481 -1.12257,-3.454915 h -3.632713 l 2.938927,-2.135255 -1.12257,-3.454915 2.938926,2.135255 2.938926,-2.135255 -1.12257,3.454915 2.938927,2.135255 H 70.48257 Z" /></g></g><g
       id="g220"><g
         clip-path="url(#clipPath226)"
         id="g222"><path
           id="path228"
           style="fill:#000000;fill-opacity:1;fill-rule:nonzero;stroke:#000000;stroke-width:1;stroke-linecap:butt;stroke-linejoin:miter;stroke-miterlimit:10;stroke-dasharray:none;stroke-opacity:1"
           d="m 303.6,73.720481 -5,-10 h 10 z" /></g></g><g
       id="g230"><g
         clip-path="url(#clipPath236)"
         id="g232"><path
           id="path238"
           style="fill:#000000;fill-opacity:1;fill-rule:nonzero;stroke:#000000;stroke-width:1;stroke-linecap:butt;stroke-linejoin:miter;stroke-miterlimit:10;stroke-dasharray:none;stroke-opacity:1"
           d="m 69.36,273.8167 5,10 h -10 z" /></g></g><g
       id="g240"><path
         id="path242"
         style="fill:#ffffff;fill-opacity:0.8;fill-rule:nonzero;stroke:#cccccc;stroke-width:1;stroke-linecap:butt;stroke-linejoin:miter;stroke-miterlimit:10;stroke-dasharray:none;stroke-opacity:0.8"
         d="M 293.68713,281.52922 H 355.16 c 1.33333,0 2,0.66666 2,2 v 40.81153 c 0,1.33333 -0.66667,2 -2,2 h -61.47287 c -1.33333,0 -2,-0.66667 -2,-2 v -40.81153 c 0,-1.33334 0.66667,-2 2,-2 z" /><path
         id="path244"
         style="fill:#000000;fill-opacity:1;fill-rule:nonzero;stroke:#000000;stroke-width:1;stroke-linecap:butt;stroke-linejoin:bevel;stroke-miterlimit:10;stroke-dasharray:none;stroke-opacity:1"
         d="m 305.68713,323.84075 -1.12257,-3.45491 h -3.63271 l 2.93893,-2.13526 -1.12257,-3.45491 2.93892,2.13525 2.93893,-2.13525 -1.12257,3.45491 2.93893,2.13526 h -3.63272 z" /><text
         id="text248"
         style="font-variant:normal;font-weight:normal;font-size:9.96263981px;font-family:'Computer Modern';-inkscape-font-specification:CMSS10;writing-mode:lr-tb;fill:#000000;fill-opacity:1;fill-rule:nonzero;stroke:none"
         transform="matrix(1,0,0,-1,323.68713,315.34075)"><tspan
           id="tspan246"
           y="0"
           x="0 6.6351185 11.775841 16.199253 21.339975 26.044546">Anchor</tspan></text>
<path
         id="path250"
         style="fill:#000000;fill-opacity:1;fill-rule:nonzero;stroke:#000000;stroke-width:1;stroke-linecap:butt;stroke-linejoin:miter;stroke-miterlimit:10;stroke-dasharray:none;stroke-opacity:1"
         d="m 305.68713,309.90357 -5,-10 h 10 z" /><text
         id="text254"
         style="font-variant:normal;font-weight:normal;font-size:9.96263981px;font-family:'Computer Modern';-inkscape-font-specification:CMSS10;writing-mode:lr-tb;fill:#000000;fill-opacity:1;fill-rule:nonzero;stroke:none"
         transform="matrix(1,0,0,-1,323.68713,301.40357)"><tspan
           id="tspan252"
           y="0"
           x="0 7.3325033">OT</tspan></text>
<path
         id="path256"
         style="fill:#000000;fill-opacity:1;fill-rule:nonzero;stroke:#000000;stroke-width:1;stroke-linecap:butt;stroke-linejoin:miter;stroke-miterlimit:10;stroke-dasharray:none;stroke-opacity:1"
         d="m 305.68713,285.96639 5,10 h -10 z" /><text
         id="text260"
         style="font-variant:normal;font-weight:normal;font-size:9.96263981px;font-family:'Computer Modern';-inkscape-font-specification:CMSS10;writing-mode:lr-tb;fill:#000000;fill-opacity:1;fill-rule:nonzero;stroke:none"
         transform="matrix(1,0,0,-1,323.68713,287.46639)"><tspan
           id="tspan258"
           y="0"
           x="0 6.6351185">VF</tspan></text>
<path
         id="path262"
         style="fill:#ffffff;fill-opacity:1;fill-rule:nonzero;stroke:none"
         d="m 384.12,16.196428 h 15.75722 V 331.34075 H 384.12 Z" /></g><g
       id="g264"><g
         clip-path="url(#clipPath270)"
         id="g266" /></g><g
       id="g272"><g
         clip-path="url(#clipPath278)"
         id="g274"><path
           id="path280"
           style="fill:#af7675;fill-opacity:1;fill-rule:nonzero;stroke:none"
           d="m 384.12,16.196428 h 15.75722 v 39.39304 H 384.12 v -39.39304" /><path
           id="path282"
           style="fill:#f1a27b;fill-opacity:1;fill-rule:nonzero;stroke:none"
           d="m 384.12,55.589468 h 15.75722 v 39.39304 H 384.12 v -39.39304" /><path
           id="path284"
           style="fill:#f9d982;fill-opacity:1;fill-rule:nonzero;stroke:none"
           d="m 384.12,94.982508 h 15.75722 V 134.37555 H 384.12 V 94.982508" /><path
           id="path286"
           style="fill:#e9fe98;fill-opacity:1;fill-rule:nonzero;stroke:none"
           d="m 384.12,134.37555 h 15.75722 v 39.39304 H 384.12 v -39.39304" /><path
           id="path288"
           style="fill:#c1fdc3;fill-opacity:1;fill-rule:nonzero;stroke:none"
           d="m 384.12,173.76859 h 15.75722 v 39.39304 H 384.12 v -39.39304" /><path
           id="path290"
           style="fill:#a0fcee;fill-opacity:1;fill-rule:nonzero;stroke:none"
           d="m 384.12,213.16163 h 15.75722 v 39.39304 H 384.12 v -39.39304" /><path
           id="path292"
           style="fill:#85befa;fill-opacity:1;fill-rule:nonzero;stroke:none"
           d="m 384.12,252.55467 h 15.75722 v 39.39304 H 384.12 v -39.39304" /><path
           id="path294"
           style="fill:#7580f7;fill-opacity:1;fill-rule:nonzero;stroke:none"
           d="m 384.12,291.94771 h 15.75722 v 39.39304 H 384.12 v -39.39304" /></g></g><g
       id="g296"><path
         id="path298"
         style="fill:#000000;fill-opacity:1;fill-rule:nonzero;stroke:#000000;stroke-width:0.80000001;stroke-linecap:butt;stroke-linejoin:round;stroke-miterlimit:10;stroke-dasharray:none;stroke-opacity:1"
         d="m 399.87722,16.196428 h 3.5" /><text
         id="text302"
         style="font-variant:normal;font-weight:normal;font-size:9.96263981px;font-family:'Computer Modern';-inkscape-font-specification:CMR10;writing-mode:lr-tb;fill:#000000;fill-opacity:1;fill-rule:nonzero;stroke:none"
         transform="matrix(1,0,0,-1,406.87722,12.737178)"><tspan
           id="tspan300"
           y="0"
           x="0">7</tspan></text>
<text
         id="text306"
         style="font-style:italic;font-variant:normal;font-weight:normal;font-size:9.96263981px;font-family:'Computer Modern';-inkscape-font-specification:CMMI10;writing-mode:lr-tb;fill:#000000;fill-opacity:1;fill-rule:nonzero;stroke:none"
         transform="matrix(1,0,0,-1,411.85855,12.737178)"><tspan
           id="tspan304"
           y="0"
           x="0">.</tspan></text>
<text
         id="text310"
         style="font-variant:normal;font-weight:normal;font-size:9.96263981px;font-family:'Computer Modern';-inkscape-font-specification:CMR10;writing-mode:lr-tb;fill:#000000;fill-opacity:1;fill-rule:nonzero;stroke:none"
         transform="matrix(1,0,0,-1,414.62596,12.737178)"><tspan
           id="tspan308"
           y="0"
           x="0 4.9813199">02</tspan></text>
<path
         id="path312"
         style="fill:#000000;fill-opacity:1;fill-rule:nonzero;stroke:#000000;stroke-width:0.80000001;stroke-linecap:butt;stroke-linejoin:round;stroke-miterlimit:10;stroke-dasharray:none;stroke-opacity:1"
         d="m 399.87722,55.589468 h 3.5" /><text
         id="text316"
         style="font-variant:normal;font-weight:normal;font-size:9.96263981px;font-family:'Computer Modern';-inkscape-font-specification:CMR10;writing-mode:lr-tb;fill:#000000;fill-opacity:1;fill-rule:nonzero;stroke:none"
         transform="matrix(1,0,0,-1,406.87722,52.130219)"><tspan
           id="tspan314"
           y="0"
           x="0">9</tspan></text>
<text
         id="text320"
         style="font-style:italic;font-variant:normal;font-weight:normal;font-size:9.96263981px;font-family:'Computer Modern';-inkscape-font-specification:CMMI10;writing-mode:lr-tb;fill:#000000;fill-opacity:1;fill-rule:nonzero;stroke:none"
         transform="matrix(1,0,0,-1,411.85855,52.130219)"><tspan
           id="tspan318"
           y="0"
           x="0">.</tspan></text>
<text
         id="text324"
         style="font-variant:normal;font-weight:normal;font-size:9.96263981px;font-family:'Computer Modern';-inkscape-font-specification:CMR10;writing-mode:lr-tb;fill:#000000;fill-opacity:1;fill-rule:nonzero;stroke:none"
         transform="matrix(1,0,0,-1,414.62596,52.130219)"><tspan
           id="tspan322"
           y="0"
           x="0 4.9813199">69</tspan></text>
<path
         id="path326"
         style="fill:#000000;fill-opacity:1;fill-rule:nonzero;stroke:#000000;stroke-width:0.80000001;stroke-linecap:butt;stroke-linejoin:round;stroke-miterlimit:10;stroke-dasharray:none;stroke-opacity:1"
         d="m 399.87722,94.982508 h 3.5" /><text
         id="text330"
         style="font-variant:normal;font-weight:normal;font-size:9.96263981px;font-family:'Computer Modern';-inkscape-font-specification:CMR10;writing-mode:lr-tb;fill:#000000;fill-opacity:1;fill-rule:nonzero;stroke:none"
         transform="matrix(1,0,0,-1,406.87722,91.523259)"><tspan
           id="tspan328"
           y="0"
           x="0 4.9813199">13</tspan></text>
<text
         id="text334"
         style="font-style:italic;font-variant:normal;font-weight:normal;font-size:9.96263981px;font-family:'Computer Modern';-inkscape-font-specification:CMMI10;writing-mode:lr-tb;fill:#000000;fill-opacity:1;fill-rule:nonzero;stroke:none"
         transform="matrix(1,0,0,-1,416.83989,91.523259)"><tspan
           id="tspan332"
           y="0"
           x="0">.</tspan></text>
<text
         id="text338"
         style="font-variant:normal;font-weight:normal;font-size:9.96263981px;font-family:'Computer Modern';-inkscape-font-specification:CMR10;writing-mode:lr-tb;fill:#000000;fill-opacity:1;fill-rule:nonzero;stroke:none"
         transform="matrix(1,0,0,-1,419.6073,91.523259)"><tspan
           id="tspan336"
           y="0"
           x="0 4.9813199">38</tspan></text>
<path
         id="path340"
         style="fill:#000000;fill-opacity:1;fill-rule:nonzero;stroke:#000000;stroke-width:0.80000001;stroke-linecap:butt;stroke-linejoin:round;stroke-miterlimit:10;stroke-dasharray:none;stroke-opacity:1"
         d="m 399.87722,134.37555 h 3.5" /><text
         id="text344"
         style="font-variant:normal;font-weight:normal;font-size:9.96263981px;font-family:'Computer Modern';-inkscape-font-specification:CMR10;writing-mode:lr-tb;fill:#000000;fill-opacity:1;fill-rule:nonzero;stroke:none"
         transform="matrix(1,0,0,-1,406.87722,130.9163)"><tspan
           id="tspan342"
           y="0"
           x="0 4.9813199">18</tspan></text>
<text
         id="text348"
         style="font-style:italic;font-variant:normal;font-weight:normal;font-size:9.96263981px;font-family:'Computer Modern';-inkscape-font-specification:CMMI10;writing-mode:lr-tb;fill:#000000;fill-opacity:1;fill-rule:nonzero;stroke:none"
         transform="matrix(1,0,0,-1,416.83989,130.9163)"><tspan
           id="tspan346"
           y="0"
           x="0">.</tspan></text>
<text
         id="text352"
         style="font-variant:normal;font-weight:normal;font-size:9.96263981px;font-family:'Computer Modern';-inkscape-font-specification:CMR10;writing-mode:lr-tb;fill:#000000;fill-opacity:1;fill-rule:nonzero;stroke:none"
         transform="matrix(1,0,0,-1,419.6073,130.9163)"><tspan
           id="tspan350"
           y="0"
           x="0 4.9813199">47</tspan></text>
<path
         id="path354"
         style="fill:#000000;fill-opacity:1;fill-rule:nonzero;stroke:#000000;stroke-width:0.80000001;stroke-linecap:butt;stroke-linejoin:round;stroke-miterlimit:10;stroke-dasharray:none;stroke-opacity:1"
         d="m 399.87722,173.76859 h 3.5" /><text
         id="text358"
         style="font-variant:normal;font-weight:normal;font-size:9.96263981px;font-family:'Computer Modern';-inkscape-font-specification:CMR10;writing-mode:lr-tb;fill:#000000;fill-opacity:1;fill-rule:nonzero;stroke:none"
         transform="matrix(1,0,0,-1,406.87722,170.30934)"><tspan
           id="tspan356"
           y="0"
           x="0 4.9813199">25</tspan></text>
<text
         id="text362"
         style="font-style:italic;font-variant:normal;font-weight:normal;font-size:9.96263981px;font-family:'Computer Modern';-inkscape-font-specification:CMMI10;writing-mode:lr-tb;fill:#000000;fill-opacity:1;fill-rule:nonzero;stroke:none"
         transform="matrix(1,0,0,-1,416.83989,170.30934)"><tspan
           id="tspan360"
           y="0"
           x="0">.</tspan></text>
<text
         id="text366"
         style="font-variant:normal;font-weight:normal;font-size:9.96263981px;font-family:'Computer Modern';-inkscape-font-specification:CMR10;writing-mode:lr-tb;fill:#000000;fill-opacity:1;fill-rule:nonzero;stroke:none"
         transform="matrix(1,0,0,-1,419.6073,170.30934)"><tspan
           id="tspan364"
           y="0"
           x="0 4.9813199">50</tspan></text>
<path
         id="path368"
         style="fill:#000000;fill-opacity:1;fill-rule:nonzero;stroke:#000000;stroke-width:0.80000001;stroke-linecap:butt;stroke-linejoin:round;stroke-miterlimit:10;stroke-dasharray:none;stroke-opacity:1"
         d="m 399.87722,213.16163 h 3.5" /><text
         id="text372"
         style="font-variant:normal;font-weight:normal;font-size:9.96263981px;font-family:'Computer Modern';-inkscape-font-specification:CMR10;writing-mode:lr-tb;fill:#000000;fill-opacity:1;fill-rule:nonzero;stroke:none"
         transform="matrix(1,0,0,-1,406.87722,209.70238)"><tspan
           id="tspan370"
           y="0"
           x="0 4.9813199">35</tspan></text>
<text
         id="text376"
         style="font-style:italic;font-variant:normal;font-weight:normal;font-size:9.96263981px;font-family:'Computer Modern';-inkscape-font-specification:CMMI10;writing-mode:lr-tb;fill:#000000;fill-opacity:1;fill-rule:nonzero;stroke:none"
         transform="matrix(1,0,0,-1,416.83989,209.70238)"><tspan
           id="tspan374"
           y="0"
           x="0">.</tspan></text>
<text
         id="text380"
         style="font-variant:normal;font-weight:normal;font-size:9.96263981px;font-family:'Computer Modern';-inkscape-font-specification:CMR10;writing-mode:lr-tb;fill:#000000;fill-opacity:1;fill-rule:nonzero;stroke:none"
         transform="matrix(1,0,0,-1,419.6073,209.70238)"><tspan
           id="tspan378"
           y="0"
           x="0 4.9813199">21</tspan></text>
<path
         id="path382"
         style="fill:#000000;fill-opacity:1;fill-rule:nonzero;stroke:#000000;stroke-width:0.80000001;stroke-linecap:butt;stroke-linejoin:round;stroke-miterlimit:10;stroke-dasharray:none;stroke-opacity:1"
         d="m 399.87722,252.55467 h 3.5" /><text
         id="text386"
         style="font-variant:normal;font-weight:normal;font-size:9.96263981px;font-family:'Computer Modern';-inkscape-font-specification:CMR10;writing-mode:lr-tb;fill:#000000;fill-opacity:1;fill-rule:nonzero;stroke:none"
         transform="matrix(1,0,0,-1,406.87722,249.09542)"><tspan
           id="tspan384"
           y="0"
           x="0 4.9813199">48</tspan></text>
<text
         id="text390"
         style="font-style:italic;font-variant:normal;font-weight:normal;font-size:9.96263981px;font-family:'Computer Modern';-inkscape-font-specification:CMMI10;writing-mode:lr-tb;fill:#000000;fill-opacity:1;fill-rule:nonzero;stroke:none"
         transform="matrix(1,0,0,-1,416.83989,249.09542)"><tspan
           id="tspan388"
           y="0"
           x="0">.</tspan></text>
<text
         id="text394"
         style="font-variant:normal;font-weight:normal;font-size:9.96263981px;font-family:'Computer Modern';-inkscape-font-specification:CMR10;writing-mode:lr-tb;fill:#000000;fill-opacity:1;fill-rule:nonzero;stroke:none"
         transform="matrix(1,0,0,-1,419.6073,249.09542)"><tspan
           id="tspan392"
           y="0"
           x="0 4.9813199">60</tspan></text>
<path
         id="path396"
         style="fill:#000000;fill-opacity:1;fill-rule:nonzero;stroke:#000000;stroke-width:0.80000001;stroke-linecap:butt;stroke-linejoin:round;stroke-miterlimit:10;stroke-dasharray:none;stroke-opacity:1"
         d="m 399.87722,291.94771 h 3.5" /><text
         id="text400"
         style="font-variant:normal;font-weight:normal;font-size:9.96263981px;font-family:'Computer Modern';-inkscape-font-specification:CMR10;writing-mode:lr-tb;fill:#000000;fill-opacity:1;fill-rule:nonzero;stroke:none"
         transform="matrix(1,0,0,-1,406.87722,288.48846)"><tspan
           id="tspan398"
           y="0"
           x="0 4.9813199">67</tspan></text>
<text
         id="text404"
         style="font-style:italic;font-variant:normal;font-weight:normal;font-size:9.96263981px;font-family:'Computer Modern';-inkscape-font-specification:CMMI10;writing-mode:lr-tb;fill:#000000;fill-opacity:1;fill-rule:nonzero;stroke:none"
         transform="matrix(1,0,0,-1,416.83989,288.48846)"><tspan
           id="tspan402"
           y="0"
           x="0">.</tspan></text>
<text
         id="text408"
         style="font-variant:normal;font-weight:normal;font-size:9.96263981px;font-family:'Computer Modern';-inkscape-font-specification:CMR10;writing-mode:lr-tb;fill:#000000;fill-opacity:1;fill-rule:nonzero;stroke:none"
         transform="matrix(1,0,0,-1,419.6073,288.48846)"><tspan
           id="tspan406"
           y="0"
           x="0 4.9813199">10</tspan></text>
<path
         id="path410"
         style="fill:#000000;fill-opacity:1;fill-rule:nonzero;stroke:#000000;stroke-width:0.80000001;stroke-linecap:butt;stroke-linejoin:round;stroke-miterlimit:10;stroke-dasharray:none;stroke-opacity:1"
         d="m 399.87722,331.34075 h 3.5" /><text
         id="text414"
         style="font-variant:normal;font-weight:normal;font-size:9.96263981px;font-family:'Computer Modern';-inkscape-font-specification:CMR10;writing-mode:lr-tb;fill:#000000;fill-opacity:1;fill-rule:nonzero;stroke:none"
         transform="matrix(1,0,0,-1,406.87722,327.8815)"><tspan
           id="tspan412"
           y="0"
           x="0 4.9813199">92</tspan></text>
<text
         id="text418"
         style="font-style:italic;font-variant:normal;font-weight:normal;font-size:9.96263981px;font-family:'Computer Modern';-inkscape-font-specification:CMMI10;writing-mode:lr-tb;fill:#000000;fill-opacity:1;fill-rule:nonzero;stroke:none"
         transform="matrix(1,0,0,-1,416.83989,327.8815)"><tspan
           id="tspan416"
           y="0"
           x="0">.</tspan></text>
<text
         id="text422"
         style="font-variant:normal;font-weight:normal;font-size:9.96263981px;font-family:'Computer Modern';-inkscape-font-specification:CMR10;writing-mode:lr-tb;fill:#000000;fill-opacity:1;fill-rule:nonzero;stroke:none"
         transform="matrix(1,0,0,-1,419.6073,327.8815)"><tspan
           id="tspan420"
           y="0"
           x="0 4.9813199">63</tspan></text>
<path
         id="path424"
         style="fill:none;stroke:#000000;stroke-width:0.80000001;stroke-linecap:square;stroke-linejoin:miter;stroke-miterlimit:10;stroke-dasharray:none;stroke-opacity:1"
         d="m 384.12,16.196428 h 7.87861 7.87861 V 331.34075 H 391.99861 384.12 Z" /></g></g></svg>